<svg width="64" height="29" viewBox="0 0 64 29" fill="none" xmlns="http://www.w3.org/2000/svg">
<path d="M13.5751 4.06059C14.1502 4.06059 14.6316 4.13301 15.0192 4.27785C15.4069 4.42268 15.7753 4.63568 16.1247 4.91683L15.5048 5.63888C15.228 5.40459 14.934 5.23845 14.623 5.14048C14.3163 5.03824 13.9947 4.98712 13.6582 4.98712C13.1768 4.98712 12.7316 5.10214 12.3227 5.33217C11.9137 5.55795 11.5836 5.93495 11.3323 6.46318C11.0852 6.98714 10.9617 7.69855 10.9617 8.59739C10.9617 9.47067 11.0788 10.1714 11.3131 10.6997C11.5517 11.2279 11.8733 11.6091 12.278 11.8434C12.6827 12.0777 13.1342 12.1949 13.6326 12.1949C14.1268 12.1949 14.5315 12.1203 14.8467 11.9712C15.1662 11.8221 15.4431 11.6517 15.6774 11.46L16.2525 12.1885C15.9841 12.4483 15.6348 12.6741 15.2045 12.8658C14.7743 13.0532 14.246 13.147 13.6198 13.147C12.9084 13.147 12.2631 12.9723 11.6837 12.623C11.1086 12.2737 10.6528 11.7625 10.3163 11.0894C9.97975 10.4121 9.81148 9.58143 9.81148 8.59739C9.81148 7.60909 9.98188 6.77841 10.3227 6.10534C10.6677 5.43228 11.1257 4.92322 11.6965 4.57817C12.2716 4.23312 12.8978 4.06059 13.5751 4.06059ZM19.0207 3.45994V7.19162C19.2848 6.83805 19.6085 6.57393 19.9919 6.39928C20.3796 6.22036 20.7715 6.1309 21.1677 6.1309C21.8237 6.1309 22.3029 6.30556 22.6054 6.65487C22.9078 7.00418 23.0591 7.48981 23.0591 8.11176V13H21.9856V8.13732C21.9856 7.73263 21.8918 7.43869 21.7044 7.25552C21.517 7.06808 21.223 6.97436 20.8226 6.97436C20.567 6.97436 20.3242 7.03187 20.0942 7.14689C19.8641 7.26191 19.6575 7.40462 19.4743 7.57501C19.2912 7.74541 19.1399 7.92006 19.0207 8.09898V13H17.9472V3.57496L19.0207 3.45994ZM30.428 11.5303C30.428 11.7987 30.4727 11.9947 30.5621 12.1182C30.6516 12.2417 30.79 12.3333 30.9775 12.393L30.7155 13.147C30.4258 13.1086 30.1724 13.017 29.9551 12.8722C29.7379 12.7231 29.5802 12.4995 29.4823 12.2013C29.2394 12.5122 28.937 12.7487 28.5749 12.9105C28.2128 13.0682 27.8124 13.147 27.3736 13.147C26.7005 13.147 26.1702 12.9574 25.7825 12.5783C25.3949 12.1991 25.2011 11.6965 25.2011 11.0703C25.2011 10.3759 25.4716 9.84341 26.0126 9.4728C26.5536 9.10219 27.3353 8.91688 28.3576 8.91688H29.3481V8.35457C29.3481 7.86894 29.2054 7.52602 28.9199 7.32581C28.6388 7.12133 28.2469 7.01909 27.7442 7.01909C27.5227 7.01909 27.2628 7.04678 26.9647 7.10216C26.6665 7.15328 26.3427 7.24061 25.9934 7.36415L25.7122 6.55263C26.1255 6.39928 26.5131 6.29065 26.8752 6.22675C27.2373 6.16285 27.5823 6.1309 27.9104 6.1309C28.7496 6.1309 29.3779 6.32686 29.7954 6.71877C30.2171 7.10642 30.428 7.63465 30.428 8.30346V11.5303ZM27.6484 12.3291C27.9806 12.3291 28.298 12.246 28.6005 12.0799C28.9029 11.9095 29.1521 11.6752 29.3481 11.377V9.64532H28.3768C27.6356 9.64532 27.1116 9.77312 26.8049 10.0287C26.5025 10.2843 26.3512 10.6272 26.3512 11.0575C26.3512 11.475 26.4577 11.7923 26.6707 12.0096C26.888 12.2226 27.2139 12.3291 27.6484 12.3291ZM38.6148 12.6613C38.3847 12.8147 38.1057 12.934 37.7777 13.0192C37.4497 13.1044 37.1281 13.147 36.8128 13.147C36.0886 13.147 35.5306 12.9574 35.1387 12.5783C34.7468 12.1991 34.5508 11.7114 34.5508 11.115V7.10216H33.0045V6.27148H34.5508V4.7443L35.6243 4.61651V6.27148H37.9502L37.8224 7.10216H35.6243V11.1022C35.6243 11.4771 35.7223 11.7625 35.9182 11.9585C36.1185 12.1544 36.4486 12.2524 36.9087 12.2524C37.16 12.2524 37.3922 12.2226 37.6052 12.1629C37.8182 12.1033 38.0162 12.0266 38.1994 11.9329L38.6148 12.6613Z" fill="#19D800"/>
<path d="M14.4633 18.4953C14.4633 18.1289 14.393 17.8329 14.2524 17.6071C14.1161 17.3771 13.9159 17.2088 13.6518 17.1023C13.3877 16.9958 13.0703 16.9425 12.6997 16.9425H11.7859V20.1439H12.7508C13.1001 20.1439 13.4005 20.0906 13.6518 19.9841C13.9074 19.8734 14.1055 19.6966 14.246 19.4538C14.3909 19.2109 14.4633 18.8914 14.4633 18.4953ZM16.278 18.4825C16.278 19.1683 16.1311 19.7307 15.8371 20.1694C15.5474 20.6039 15.1406 20.9256 14.6167 21.1343C14.0927 21.3388 13.4878 21.441 12.8019 21.441H11.7859V24.5017H10.0351V15.6646H12.6358C13.7817 15.6646 14.6742 15.8967 15.3131 16.3611C15.9564 16.8254 16.278 17.5325 16.278 18.4825ZM17.7555 24.5017V23.3324H18.7076V18.8978H17.7555V17.7349H19.9919L20.305 19.2876C20.5521 18.7125 20.8631 18.2802 21.2379 17.9905C21.6128 17.6965 22.0835 17.5496 22.6501 17.5496C22.8674 17.5496 23.0591 17.5666 23.2252 17.6007C23.3956 17.6348 23.5575 17.6795 23.7108 17.7349L23.206 19.1534C23.074 19.1194 22.9483 19.0938 22.829 19.0768C22.7097 19.0555 22.5756 19.0448 22.4265 19.0448C21.9579 19.0448 21.5489 19.228 21.1996 19.5943C20.8546 19.9564 20.5862 20.4484 20.3945 21.0704V23.3324H21.7427V24.5017H17.7555ZM22.2859 20.3739V18.5783L22.5159 17.7349H23.7108L23.4105 20.3739H22.2859ZM28.1659 17.5432C28.839 17.5432 29.4098 17.6902 29.8784 17.9841C30.347 18.278 30.7027 18.6934 30.9455 19.2301C31.1926 19.7626 31.3161 20.3867 31.3161 21.1023C31.3161 21.835 31.1926 22.4698 30.9455 23.0065C30.6985 23.5433 30.3406 23.9586 29.872 24.2525C29.4034 24.5465 28.8326 24.6934 28.1596 24.6934C27.4908 24.6934 26.9199 24.5507 26.4471 24.2653C25.9785 23.9756 25.6207 23.5646 25.3736 23.0321C25.1265 22.4953 25.003 21.8563 25.003 21.1151C25.003 20.408 25.1265 19.786 25.3736 19.2493C25.6207 18.7125 25.9806 18.2951 26.4535 17.9969C26.9263 17.6944 27.4971 17.5432 28.1659 17.5432ZM28.1659 18.8148C27.6931 18.8148 27.3395 19.0001 27.1052 19.3707C26.8752 19.7413 26.7602 20.3228 26.7602 21.1151C26.7602 21.916 26.8752 22.5017 27.1052 22.8723C27.3353 23.2387 27.6867 23.4219 28.1596 23.4219C28.6324 23.4219 28.9838 23.2387 29.2139 22.8723C29.4439 22.5017 29.5589 21.9117 29.5589 21.1023C29.5589 20.3143 29.4439 19.737 29.2139 19.3707C28.9838 19.0001 28.6345 18.8148 28.1659 18.8148ZM37.8288 17.5432C38.1185 17.5432 38.3656 17.605 38.57 17.7285C38.7745 17.8478 38.9321 18.0501 39.0429 18.3355C39.1536 18.6167 39.209 19.0001 39.209 19.4857V24.5017H37.7393V19.6966C37.7393 19.3899 37.7138 19.1726 37.6627 19.0448C37.6158 18.917 37.5072 18.8531 37.3368 18.8531C37.1962 18.8531 37.0535 18.8957 36.9087 18.9809C36.7681 19.0618 36.6211 19.2088 36.4678 19.4218V24.5017H35.1962V19.6966C35.1962 19.3899 35.1706 19.1726 35.1195 19.0448C35.0726 18.917 34.964 18.8531 34.7936 18.8531C34.6488 18.8531 34.5061 18.8957 34.3655 18.9809C34.2249 19.0618 34.078 19.2088 33.9246 19.4218V24.5017H32.4358V17.7349H33.6946L33.8032 18.4378C34.0034 18.1566 34.2143 17.9372 34.4358 17.7796C34.6573 17.622 34.9236 17.5432 35.2345 17.5432C35.4901 17.5432 35.7159 17.6071 35.9118 17.7349C36.1121 17.8584 36.2548 18.0714 36.34 18.3739C36.5359 18.1268 36.7553 17.9266 36.9981 17.7732C37.2409 17.6199 37.5178 17.5432 37.8288 17.5432ZM44.1753 17.5432C44.7717 17.5432 45.2488 17.6902 45.6067 17.9841C45.9688 18.2738 46.2307 18.6848 46.3926 19.2173C46.5587 19.7498 46.6418 20.3782 46.6418 21.1023C46.6418 21.7967 46.5417 22.4144 46.3415 22.9554C46.1413 23.4964 45.8473 23.9224 45.4597 24.2334C45.0763 24.5401 44.6035 24.6934 44.0411 24.6934C43.351 24.6934 42.793 24.4485 42.367 23.9586V27.1088L40.6801 27.2877V17.7349H42.1625L42.252 18.5592C42.5204 18.2099 42.8207 17.9543 43.153 17.7924C43.4852 17.6263 43.826 17.5432 44.1753 17.5432ZM43.6833 18.8084C43.3979 18.8084 43.1466 18.8936 42.9293 19.064C42.7163 19.2344 42.5289 19.4452 42.367 19.6966V22.7254C42.5204 22.9554 42.695 23.1279 42.891 23.2429C43.0869 23.358 43.3084 23.4155 43.5555 23.4155C43.9858 23.4155 44.3138 23.2366 44.5396 22.8787C44.7696 22.5166 44.8846 21.9309 44.8846 21.1215C44.8846 20.5507 44.8377 20.097 44.744 19.7605C44.6546 19.4197 44.5204 19.1769 44.3415 19.032C44.1626 18.8829 43.9432 18.8084 43.6833 18.8084ZM54.1832 24.1247C53.9319 24.2909 53.6273 24.4272 53.2695 24.5337C52.9117 24.6402 52.524 24.6934 52.1065 24.6934C51.2801 24.6934 50.6582 24.4804 50.2407 24.0545C49.8232 23.6242 49.6145 23.0534 49.6145 22.342V18.9298H48.1448V17.7349H49.6145V16.246L51.3014 16.0416V17.7349H53.5379L53.3653 18.9298H51.3014V22.3356C51.3014 22.6849 51.3866 22.9405 51.557 23.1024C51.7274 23.2642 52.0022 23.3452 52.3813 23.3452C52.6241 23.3452 52.8456 23.3175 53.0458 23.2621C53.2503 23.2025 53.4356 23.1279 53.6018 23.0385L54.1832 24.1247Z" fill="#F1F1F1"/>
<path d="M61.9255 19.3286C62.8135 19.8129 62.8135 21.088 61.9255 21.5724L57.5919 23.9362C57.2431 24.1265 56.806 23.9894 56.6283 23.634V23.634C56.455 23.2874 56.5955 22.8659 56.9421 22.6926L59.1403 21.5935C60.0822 21.1226 60.0822 19.7784 59.1403 19.3074L56.9421 18.2083C56.5955 18.035 56.455 17.6136 56.6283 17.267V17.267C56.806 16.9116 57.2431 16.7745 57.5919 16.9648L61.9255 19.3286Z" fill="#F1F1F1"/>
<path d="M2.07974 10.3111C1.18949 9.83082 1.18358 8.55573 2.06935 8.06725L6.39195 5.68341C6.73988 5.49153 7.17757 5.62658 7.35691 5.98113V5.98113C7.53182 6.32693 7.39328 6.74904 7.04749 6.92395L4.85443 8.03322C3.9147 8.50855 3.92093 9.8527 4.86502 10.3193L7.06828 11.4082C7.41568 11.5799 7.55812 12.0007 7.38643 12.3481V12.3481C7.21038 12.7043 6.77396 12.8434 6.42427 12.6548L2.07974 10.3111Z" fill="#F1F1F1"/>
</svg>
